#define plus.bm_width 11
#define plus.bm_height 11
static unsigned char plus.bm_bits[] = {
   0xff, 0x07, 0x01, 0x04, 0x01, 0x04, 0x21, 0x04, 0x21, 0x04, 0xf9, 0x04,
   0x21, 0x04, 0x21, 0x04, 0x01, 0x04, 0x01, 0x04, 0xff, 0x07};
